<?xml version="1.0" encoding="UTF-8"?>
<svg xmlns="http://www.w3.org/2000/svg" version="1.1" xmlns:xlink="http://www.w3.org/1999/xlink" viewBox="0 0 538.6 226.8">
  <defs>
    <style>
      .cls-1 {
        fill: #eb9661;
      }

      .cls-2 {
        fill: #155177;
      }

      .cls-3 {
        display: none;
        isolation: isolate;
      }

      .cls-4 {
        fill: #f6c75e;
      }

      .cls-5 {
        fill: #5e9cc3;
      }
    </style>
  </defs>
  <!-- Generator: Adobe Illustrator 28.7.2, SVG Export Plug-In . SVG Version: 1.2.0 Build 154)  -->
  <g>
    <g id="Layer_1">
      <image class="cls-3" width="366" height="142" transform="translate(13 11.4) scale(1.5)" xlink:href="../../../../../Downloads/image (1).png"/>
      <g id="Layer_1-2" data-name="Layer_1">
        <path class="cls-4" d="M27.5,138.1v22.7c0,12.5,33,22.7,73.8,22.7v-22.7c-40.8,0-73.8-10.2-73.8-22.7Z"/>
        <path class="cls-1" d="M27.5,106.6v22.7c0,12.5,33,22.7,73.8,22.7v-22.7c-40.8-.1-73.8-10.2-73.8-22.7Z"/>
        <path class="cls-5" d="M27.5,75v22.7c0,12.5,33,22.7,73.8,22.7v-22.7c-40.8,0-73.8-10.2-73.8-22.7Z"/>
        <path class="cls-2" d="M27.5,66c0,12.5,33,22.7,73.8,22.7v-45.3c-40.8,0-73.8,10.1-73.8,22.6Z"/>
        <path class="cls-2" d="M126.4,66.5c3,0,5.9-1.2,8-3.4,2.2-2.1,3.4-5,3.4-8.1s-1.1-6-3.4-8.2c-2.1-2.2-5-3.4-8-3.4s-6,1.1-8.2,3.4c-2.2,2.2-3.4,5.1-3.4,8.2.1,6.4,5.3,11.5,11.6,11.5Z"/>
        <path class="cls-4" d="M127.6,183.9c.1.2.3.4.5.5s.4.2.6.2l6.3-1.1c.3,0,.5-.1.6-.3s.2-.4.2-.6l-2.6-21.8h-12.2l6.6,23.1Z"/>
        <path class="cls-1" d="M116.8,146.6c.2.2.4.4.5.7s.2.5.3.7l1.1,4h13.5l-1.4-12c0-.3,0-.6-.2-.8,0-.4-.3-.6-.3-.8l-4.8-9.1h-17.7v7l9,10.3Z"/>
        <path class="cls-5" d="M157.6,109.8c0-.2-.2-.4-.3-.6l-15.3-11.5h-34.2v22.7h12.9l-3-5.9c-.2-.5-.2-1,0-1.6l6.5-14.7c0-.2.2-.3.4-.3s.4,0,.5.2l6.5,5.7c.2.2.4.4.7.5.3.2.5.3.8.4l20.5,10.4c.5.2.9,0,1.2-.4l2.7-4.2c.2-.2.2-.4.2-.7Z"/>
        <path class="cls-2" d="M135.9,88.6l-5.9-15.9c-.1-.2-.3-.4-.5-.6s-.4-.4-.6-.6l-13.1-7.2c-.3,0-.5-.2-.8-.2s-.6,0-.8,0l-6.2,2.7v21.8h28c0,0-.1,0-.1,0Z"/>
        <path class="cls-2" d="M201.6,43.4v5.2h-13.8v6.6h12v4.8h-12v11.8h-6.2v-28.4h20Z"/>
        <path class="cls-2" d="M219.6,70.6c-1.7,1.3-3.7,1.8-5.9,1.8s-2.9-.3-4.3-.8c-1.1-.5-2.2-1.3-3.1-2.3-.9-1-1.5-2.2-1.9-3.4-.4-1.4-.6-2.9-.6-4.3s.3-2.9.8-4.3c.5-1.3,1.1-2.4,2-3.4.9-.9,1.9-1.7,3.1-2.3,1.3-.5,2.5-.8,3.9-.8s3.2.4,4.6,1.1c1.1.8,2.2,1.7,2.9,2.9.8,1.1,1.3,2.4,1.5,3.8.3,1.3.4,2.7.4,3.9h-15.4c0,.9.1,1.8.4,2.5.3.8.6,1.5,1.1,2.2.5.6,1.3,1.1,2,1.5.9.4,1.9.6,2.9.5,1.3,0,2.5-.3,3.6-1s1.7-1.8,1.8-3.1h3.3c-.4,2.4-1.5,4.1-3.1,5.5ZM218.8,57.4c-.3-.6-.8-1.3-1.3-1.9-.5-.5-1.1-.9-1.8-1.3-.8-.3-1.5-.5-2.3-.5s-1.7,0-2.4.5c-.6.3-1.3.8-1.8,1.3s-.9,1.1-1.1,1.9c-.3.8-.5,1.5-.5,2.3h11.8c0-.9-.3-1.7-.6-2.3Z"/>
        <path class="cls-2" d="M241.5,71.9v-2.8h-.1c-.5,1.1-1.5,2-2.7,2.4-1.3.5-2.5.8-3.9.8s-2.8-.3-4.2-.9c-1.1-.5-2.2-1.4-2.9-2.3-.8-1-1.4-2.2-1.8-3.4-.4-1.4-.6-2.8-.6-4.2s.1-2.8.6-4.2c.4-1.3.9-2.4,1.8-3.4.8-1,1.8-1.8,2.9-2.3,1.3-.6,2.7-.9,4.1-.9s1.1,0,1.7,0c.6,0,1.3.3,1.8.5.6.3,1.1.6,1.8,1,.5.4,1,.9,1.4,1.5h.1v-10.5h3.4v28.7h-3.4ZM229.3,64.5c.3.9.6,1.7,1.1,2.4.5.8,1.1,1.3,2,1.7.9.4,1.9.6,2.8.6,1.9,0,3.8-.9,4.8-2.4.5-.8.9-1.7,1.1-2.5.5-1.9.5-3.8,0-5.7-.3-.9-.6-1.8-1.1-2.5-.5-.8-1.3-1.3-2-1.8-.9-.5-1.9-.6-2.9-.6s-2,.3-2.9.6c-.8.4-1.4,1-1.9,1.8s-.9,1.7-1,2.5c-.3,1-.4,1.9-.4,2.9,0,1.2,0,2.1.4,3Z"/>
        <path class="cls-2" d="M264.7,70.6c-1.7,1.3-3.7,1.8-5.9,1.8s-2.9-.3-4.3-.8c-1.1-.5-2.2-1.3-3.1-2.3s-1.5-2.2-1.9-3.4c-.4-1.4-.6-2.9-.6-4.3s.3-2.9.8-4.3c.5-1.3,1.1-2.4,2-3.4.9-.9,1.9-1.7,3.1-2.3,1.3-.5,2.5-.8,3.9-.8s3.2.4,4.6,1.1c1.1.8,2.2,1.7,2.9,2.9.8,1.1,1.3,2.4,1.5,3.8.3,1.3.4,2.7.4,3.9h-15.4c0,.9.1,1.8.4,2.5.3.8.6,1.5,1.1,2.2.5.6,1.3,1.1,2,1.5.9.4,1.9.6,2.9.5,1.3,0,2.5-.3,3.6-1,1-.8,1.7-1.8,1.8-3.1h3.3c-.4,2.4-1.6,4.1-3.1,5.5ZM263.8,57.4c-.3-.6-.8-1.3-1.3-1.9-.5-.5-1.1-.9-1.8-1.3-.8-.3-1.5-.5-2.3-.5s-1.7,0-2.4.5c-.6.3-1.3.8-1.8,1.3s-.9,1.1-1.1,1.9-.5,1.5-.5,2.3h11.8c-.1-.9-.2-1.7-.6-2.3Z"/>
        <path class="cls-2" d="M274.5,51.3v4.3h.1c.6-1.5,1.7-2.8,3.1-3.7s2.9-1.3,4.6-1.1v3.6c-1.1,0-2.3,0-3.4.5-.9.4-1.7.9-2.3,1.7s-1,1.7-1.3,2.5c-.3,1.1-.4,2.3-.4,3.6v9.3h-3.4v-20.7h3Z"/>
        <path class="cls-2" d="M303,71.8c-.8.4-1.5.5-2.4.5s-1.5-.3-2-.8c-.6-.6-.9-1.5-.8-2.4-.9,1-2,1.9-3.2,2.4-2.2.8-4.5,1-6.6.4-.8,0-1.5-.5-2.2-1-.6-.5-1.1-1-1.4-1.8-.4-.9-.5-1.8-.5-2.7s.1-2,.6-2.9c.4-.8.9-1.4,1.5-1.8.6-.5,1.4-.9,2.3-1,.9-.3,1.7-.4,2.5-.6.9,0,1.8-.4,2.7-.4.8,0,1.5-.3,2.2-.4.5,0,1-.4,1.5-.8.4-.4.6-.9.5-1.4,0-.6-.1-1.3-.4-1.8-.3-.4-.6-.8-1-1-.5-.3-1-.4-1.5-.5s-1,0-1.7,0c-1.3,0-2.4.3-3.6.8-1,.6-1.7,1.9-1.5,3.1h-3.4c0-1.1.3-2.2.8-3.2.5-.9,1.1-1.5,1.9-2.2.9-.5,1.8-1,2.7-1.1,1-.3,2.2-.4,3.3-.4s1.9,0,2.8.3c.9,0,1.7.4,2.5.8.8.4,1.4,1,1.8,1.8.5.9.8,1.9.6,2.9v10.6c0,.6,0,1.1.1,1.8.1.4.4.5.9.5s.8,0,1-.3v2.7ZM297.5,61.2c-.5.4-1,.6-1.7.6-.6,0-1.4.3-2.2.4s-1.5.3-2.3.4c-.8,0-1.4.3-2,.6s-1.1.6-1.5,1.1c-.4.6-.6,1.3-.6,2s.1,1,.4,1.4.5.6.9.9.8.4,1.3.5,1,0,1.5,0c1,0,1.9,0,2.9-.5.8-.3,1.4-.6,1.9-1.1.5-.4.9-.9,1.1-1.5.3-.5.4-1,.4-1.5v-3.4Z"/>
        <path class="cls-2" d="M315,51.3v2.9h-4.1v12.7c0,.4,0,.6.1,1,0,.3.1.4.4.5s.5.3.8.3.9,0,1.3,0h1.5v3.2h-2.5c-.8,0-1.5,0-2.3,0-.5,0-1-.3-1.5-.6-.4-.4-.8-.9-.9-1.4-.3-.8-.3-1.5-.3-2.3v-13.2h-3.6v-2.9h3.6v-6.2h3.4v6.1h4.1Z"/>
        <path class="cls-2" d="M333.2,70.6c-1.7,1.3-3.7,1.8-5.9,1.8s-2.9-.3-4.3-.8c-1.1-.5-2.2-1.3-3.1-2.3s-1.5-2.2-1.9-3.4c-.4-1.4-.6-2.9-.6-4.3s.3-2.9.8-4.3c.5-1.3,1.1-2.4,2-3.4.9-.9,1.9-1.7,3.1-2.3,1.3-.5,2.5-.8,3.9-.8s3.2.4,4.6,1.1c1.1.8,2.2,1.7,2.9,2.9.8,1.1,1.3,2.4,1.5,3.8.3,1.3.4,2.7.4,3.9h-15.4c0,.9.1,1.8.4,2.5.3.8.6,1.5,1.1,2.2s1.3,1.1,2,1.5c.9.4,1.9.6,2.9.5,1.3,0,2.5-.3,3.6-1s1.7-1.8,1.8-3.1h3.3c-.3,2.4-1.4,4.1-3.1,5.5ZM332.4,57.4c-.3-.6-.8-1.3-1.3-1.9-.5-.5-1.1-.9-1.8-1.3-.8-.3-1.5-.5-2.3-.5s-1.7,0-2.4.5c-.6.3-1.3.8-1.8,1.3s-.9,1.1-1.1,1.9c-.3.8-.5,1.5-.5,2.3h11.8c0-.9-.3-1.7-.6-2.3Z"/>
        <path class="cls-2" d="M355.1,71.9v-2.8h-.1c-.5,1.1-1.5,2-2.7,2.4-1.3.5-2.5.8-3.9.8s-2.8-.3-4.2-.9c-1.1-.5-2.2-1.4-2.9-2.3-.8-1-1.4-2.2-1.8-3.4-.4-1.4-.6-2.8-.6-4.2s.1-2.8.6-4.2c.4-1.3.9-2.4,1.8-3.4.8-1,1.8-1.8,2.9-2.3,1.3-.6,2.7-.9,4.1-.9s1.1,0,1.7,0,1.3.3,1.8.5c.6.3,1.1.6,1.8,1,.5.4,1,.9,1.4,1.5h.1v-10.5h3.4v28.7h-3.4ZM342.9,64.5c.3.9.6,1.7,1.1,2.4.5.8,1.1,1.3,2,1.7s1.9.6,2.8.6c1.9,0,3.8-.9,4.8-2.4.5-.8.9-1.7,1.1-2.5.5-1.9.5-3.8,0-5.7-.3-.9-.6-1.8-1.1-2.5-.5-.8-1.3-1.3-2-1.8-.9-.5-1.9-.6-2.9-.6s-2,.3-2.9.6c-.8.4-1.4,1-1.9,1.8s-.9,1.7-1,2.5c-.3,1-.4,1.9-.4,2.9s.1,2.1.4,3h0Z"/>
        <path class="cls-2" d="M202.9,79.7v5.2h-15v6.1h13.8v4.8h-13.8v7h15.3v5.2h-21.7v-28.3h21.4Z"/>
        <path class="cls-2" d="M221.1,108.1v-3.3h-.1c-.6,1.1-1.5,2.2-2.8,2.8s-2.5.9-3.9.9-2.3,0-3.4-.5c-.9-.4-1.7-.9-2.2-1.5s-1-1.5-1.1-2.4c-.3-1-.4-2-.4-3.1v-13.5h3.4v14c0,1.1.4,2.2,1.1,3.1.8.8,1.9,1.1,3.1,1.1s1.8,0,2.7-.5c.8-.3,1.4-.8,1.9-1.4s.9-1.3,1.1-2c.3-.9.4-1.7.4-2.5v-11.7h3.4v20.6h-3.2Z"/>
        <path class="cls-2" d="M232.5,87.5v4.3h.1c.6-1.5,1.7-2.8,3.1-3.7,1.4-.9,2.9-1.3,4.6-1.1v3.6c-1.1,0-2.3,0-3.4.5-.9.4-1.7.9-2.3,1.7-.6.8-1,1.7-1.3,2.5-.3,1.1-.4,2.3-.4,3.6v9.2h-3.4v-20.6h3Z"/>
        <path class="cls-2" d="M241.5,93.6c.4-1.3,1-2.4,1.9-3.4s1.9-1.8,3.2-2.3c2.8-1.1,5.9-1.1,8.7,0,1.1.5,2.3,1.3,3.2,2.3s1.5,2.2,1.9,3.4c.4,1.4.6,2.8.6,4.2s-.3,2.8-.6,4.2c-.4,1.3-1,2.4-1.9,3.4s-1.9,1.8-3.2,2.3c-2.8,1.1-5.9,1.1-8.7,0-1.1-.5-2.3-1.3-3.2-2.3s-1.5-2.2-1.9-3.4c-.4-1.4-.6-2.8-.6-4.2,0-1.4,0-2.8.6-4.2ZM244.9,101.1c.3.9.8,1.8,1.4,2.4.5.6,1.3,1.1,2,1.5,1.5.6,3.4.6,5,0,.8-.4,1.5-.9,2-1.5.6-.8,1.1-1.5,1.4-2.4.6-2.2.6-4.5,0-6.6-.3-.9-.8-1.8-1.4-2.4-.5-.6-1.3-1.1-2-1.5-1.5-.6-3.4-.6-5,0-.8.4-1.5.9-2,1.5-.6.8-1,1.5-1.4,2.4-.6,2.1-.6,4.4,0,6.6h0Z"/>
        <path class="cls-2" d="M268.4,87.5v2.8h.1c.5-1.1,1.5-2,2.7-2.5,1.3-.5,2.5-.8,3.9-.8s2.8.3,4.2.9c1.1.5,2.2,1.4,2.9,2.4.8,1,1.4,2.2,1.8,3.4.4,1.4.6,2.8.6,4.2s-.1,2.8-.6,4.2c-.4,1.3-.9,2.4-1.8,3.4-.8,1-1.8,1.8-2.9,2.3-1.3.6-2.7.9-4.1.9s-1.1,0-1.7,0-1.3-.3-1.9-.5c-.6-.3-1.1-.5-1.8-1-.5-.4-1-.9-1.4-1.5h-.1v10.6h-3.4v-28.7h3.5ZM280.5,94.8c-.3-.9-.6-1.7-1.1-2.4-.5-.8-1.1-1.3-2-1.7-.9-.4-1.9-.6-2.8-.6-1.9,0-3.8.9-4.8,2.4-.5.8-.9,1.7-1.1,2.5-.5,1.9-.5,3.8,0,5.7.3.9.6,1.8,1.1,2.5.5.8,1.3,1.3,2,1.8.9.5,1.9.6,2.9.6s2-.3,2.9-.6c.8-.4,1.4-1,1.9-1.8s.9-1.7,1-2.5c.3-1,.4-1.9.4-2.9s-.2-2.1-.4-3Z"/>
        <path class="cls-2" d="M303,106.8c-1.7,1.3-3.7,1.8-5.9,1.8s-2.9-.3-4.3-.8c-1.1-.5-2.2-1.3-3.1-2.3s-1.5-2.2-1.9-3.4c-.4-1.4-.6-2.9-.6-4.3s.3-2.9.8-4.3c.5-1.3,1.1-2.4,2-3.4.9-.9,1.9-1.7,3.1-2.3,1.3-.5,2.5-.8,3.9-.8s3.2.4,4.6,1.1c1.1.8,2.2,1.7,2.9,2.9.8,1.1,1.3,2.4,1.5,3.8.3,1.3.4,2.7.4,3.9h-15.4c0,.9.1,1.8.4,2.5s.6,1.5,1.1,2.2c.5.6,1.3,1.1,2,1.5.9.4,1.9.6,2.9.5,1.3,0,2.5-.3,3.6-1,1-.8,1.7-1.8,1.8-3.1h3.3c-.4,2.3-1.4,4.1-3.1,5.5ZM302.3,93.6c-.3-.6-.8-1.3-1.3-1.9-.5-.5-1.1-.9-1.8-1.3-.8-.3-1.5-.5-2.3-.5s-1.7,0-2.4.5c-.6.3-1.3.8-1.8,1.3s-.9,1.1-1.1,1.9c-.3.8-.5,1.5-.5,2.3h11.8c-.3-.9-.4-1.7-.6-2.3Z"/>
        <path class="cls-2" d="M328.1,108c-.8.4-1.5.5-2.4.5s-1.5-.3-2-.8c-.6-.6-.9-1.5-.8-2.4-.9,1-2,1.9-3.2,2.4-2.2.8-4.5,1-6.6.4-.8,0-1.5-.5-2.2-1-.6-.5-1.1-1-1.4-1.8-.4-.9-.5-1.8-.5-2.7s.1-2,.6-2.9c.4-.8.9-1.4,1.5-1.8.6-.5,1.4-.9,2.3-1,.9-.3,1.7-.4,2.5-.6.9,0,1.8-.4,2.7-.4.8,0,1.5-.3,2.2-.4.5,0,1-.4,1.5-.8.4-.4.6-.9.5-1.4,0-.6-.1-1.3-.4-1.8-.3-.4-.6-.8-1-1-.5-.3-1-.4-1.5-.5s-1,0-1.7,0c-1.3,0-2.4.3-3.6.8-1,.6-1.7,1.9-1.5,3.1h-3.4c0-1.1.3-2.2.8-3.2.5-.9,1.1-1.5,1.9-2.2.9-.5,1.8-1,2.7-1.1,1-.3,2.2-.4,3.3-.4s1.9,0,2.8.3c.9,0,1.7.4,2.5.8s1.4,1,1.8,1.8c.5.9.8,1.9.6,2.9v10.6c0,.6,0,1.1.1,1.8.1.4.4.5.9.5s.8,0,1-.3v2.7ZM322.6,97.4c-.5.4-1,.6-1.7.6-.6,0-1.4.3-2.2.4-.8,0-1.5.3-2.3.4s-1.4.3-2,.6c-.6.3-1.1.6-1.5,1.1-.4.6-.6,1.3-.6,2s.1,1,.4,1.4.5.6.9.9.8.4,1.3.5,1,0,1.5,0c1,0,1.9,0,2.9-.5.8-.3,1.4-.6,1.9-1.1.5-.4.9-.9,1.1-1.5.3-.5.4-1,.4-1.5v-3.4Z"/>
        <path class="cls-2" d="M334.5,87.5v3.3h.1c1.3-2.4,3.9-3.9,6.8-3.7,1.1,0,2.3,0,3.4.5.9.4,1.7.9,2.2,1.5s1,1.5,1.1,2.4c.3,1,.4,2,.4,3.1v13.5h-3.4v-14c0-1.1-.4-2.2-1.1-3.1-.8-.8-1.9-1.1-3.1-1.1s-1.8,0-2.7.5c-.8.3-1.4.8-1.9,1.4s-.9,1.3-1.1,2c-.3.9-.4,1.7-.4,2.5v11.7h-3.4v-20.5h3.1Z"/>
        <path class="cls-2" d="M198.4,144c-1.3.5-2.7.9-4.1.9-2,0-4.1-.4-5.9-1.1-1.7-.8-3.2-1.8-4.5-3.2s-2.2-2.9-2.8-4.7c-.6-1.9-1-3.8-1-5.9s.3-4.1,1-5.9c.6-1.8,1.5-3.3,2.8-4.7,1.3-1.4,2.7-2.4,4.5-3.2,1.9-.8,3.8-1.1,5.9-1.1s2.9.3,4.2.6c1.4.4,2.5,1,3.7,1.9,2.3,1.8,3.8,4.5,4.1,7.5h-6c-.3-1.4-1-2.7-2.2-3.6-1.1-.8-2.4-1.3-3.8-1.1-1.3,0-2.4.3-3.6.8-1,.5-1.8,1.3-2.4,2.2-.6.9-1,2-1.3,3.2-.3,1.1-.4,2.4-.4,3.6s.1,2.3.4,3.4c.3,1.1.8,2.2,1.3,3.1.6.9,1.4,1.7,2.4,2.2,1.1.6,2.3.9,3.6.8,3.3.4,6.4-2,6.8-5.3v-.8h-6.2v-4.7h12v15.4h-4.1l-.6-3.2c-1,1.3-2.2,2.3-3.8,2.9Z"/>
        <path class="cls-2" d="M226.2,143c-1.7,1.3-3.7,1.8-5.9,1.8s-2.9-.3-4.3-.8c-1.1-.5-2.2-1.3-3.1-2.3-.9-1-1.5-2.2-1.9-3.4-.4-1.4-.6-2.9-.6-4.3s.3-2.9.8-4.3c.5-1.3,1.1-2.4,2-3.4.9-.9,1.9-1.7,3.1-2.3,1.3-.5,2.5-.8,3.9-.8s3.2.4,4.6,1.1c1.1.8,2.2,1.7,2.9,2.9.8,1.1,1.3,2.4,1.5,3.8.3,1.3.4,2.7.4,3.9h-15.4c0,.9.1,1.8.4,2.5s.6,1.5,1.1,2.2c.5.6,1.3,1.1,2,1.5.9.4,1.9.6,2.9.5,1.3,0,2.5-.3,3.6-1,1-.8,1.7-1.8,1.8-3.1h3.3c-.4,2.3-1.4,4.1-3.1,5.5ZM225.5,129.7c-.3-.6-.8-1.3-1.3-1.9-.5-.5-1.1-.9-1.8-1.3-.8-.3-1.5-.5-2.3-.5s-1.7,0-2.4.5c-.6.3-1.3.8-1.8,1.3s-.9,1.1-1.1,1.9c-.3.8-.5,1.5-.5,2.3h11.8c0-.9-.4-1.6-.6-2.3Z"/>
        <path class="cls-2" d="M236.3,123.6v3.3h.1c1.3-2.4,3.9-3.9,6.8-3.7,1.1,0,2.3,0,3.4.5.9.4,1.7.9,2.2,1.5s1,1.5,1.1,2.4c.3,1,.4,2,.4,3.1v13.5h-3.4v-14c0-1.1-.4-2.2-1.1-3.1-.8-.8-1.9-1.1-3.1-1.1s-1.8,0-2.7.5c-.8.3-1.4.8-1.9,1.4s-.9,1.3-1.1,2c-.3.9-.4,1.7-.4,2.5v11.6h-3.4v-20.6h3.2v.2h-.1Z"/>
        <path class="cls-2" d="M254.7,129.7c.4-1.3,1-2.4,1.9-3.4s1.9-1.8,3.2-2.3c2.8-1.1,5.9-1.1,8.7,0,1.1.5,2.3,1.3,3.2,2.3s1.5,2.2,1.9,3.4c.4,1.4.6,2.8.6,4.2s-.3,2.8-.6,4.2c-.4,1.3-1,2.4-1.9,3.4s-1.9,1.8-3.2,2.3c-2.8,1.1-5.9,1.1-8.7,0-1.1-.5-2.3-1.3-3.2-2.3s-1.5-2.2-1.9-3.4c-.4-1.4-.6-2.8-.6-4.2s.1-2.8.6-4.2ZM258.2,137.3c.3.9.8,1.8,1.4,2.4.5.6,1.3,1.1,2,1.5,1.5.6,3.4.6,5,0,.8-.4,1.5-.9,2-1.5.6-.8,1.1-1.5,1.4-2.4.6-2.2.6-4.5,0-6.6-.3-.9-.8-1.8-1.4-2.4-.5-.6-1.3-1.1-2-1.5-1.5-.6-3.4-.6-5,0-.8.4-1.5.9-2,1.5-.6.8-1,1.5-1.4,2.4-.7,2.1-.7,4.4,0,6.6Z"/>
        <path class="cls-2" d="M281.2,123.6v3.1h.1c2.3-3.3,6.5-4.5,10.1-2.7s1.9,1.5,2.2,2.7c.6-1.1,1.7-2,2.7-2.5,1.1-.6,2.4-.9,3.7-.9s1.9,0,2.8.4c.8.3,1.5.5,2.2,1,.6.5,1.1,1.1,1.4,1.9.4.9.5,1.8.5,2.7v15.2h-3.4v-13.5c0-.6,0-1.1-.1-1.8-.1-.5-.3-1-.6-1.4-.3-.4-.8-.8-1.3-1-.6-.3-1.3-.4-2-.4-1.4,0-2.9.4-3.9,1.4s-1.5,2.4-1.4,3.8v12.9h-3.4v-13.5c0-.6,0-1.3-.1-1.8s-.3-1-.6-1.4c-.3-.4-.8-.8-1.1-1-.6-.3-1.3-.4-1.9-.4-.9,0-1.8,0-2.5.6-1.3.6-2.2,1.8-2.7,3.2-.1.5-.3,1-.3,1.5v12.9h-3.4v-20.6h3.4v-.4h-.4Z"/>
        <path class="cls-2" d="M326.7,143c-1.7,1.3-3.7,1.8-5.9,1.8s-2.9-.3-4.3-.8c-1.1-.5-2.2-1.3-3.1-2.3s-1.5-2.2-1.9-3.4c-.4-1.4-.6-2.9-.6-4.3s.3-2.9.8-4.3c.5-1.3,1.1-2.4,2-3.4.9-.9,1.9-1.7,3.1-2.3,1.3-.5,2.5-.8,3.9-.8s3.2.4,4.6,1.1c1.1.8,2.2,1.7,2.9,2.9.8,1.1,1.3,2.4,1.5,3.8.3,1.3.4,2.7.4,3.9h-15.4c0,.9.1,1.8.4,2.5.3.8.6,1.5,1.1,2.2.5.6,1.3,1.1,2,1.5.9.4,1.9.6,2.9.5,1.3,0,2.5-.3,3.6-1,1-.8,1.7-1.8,1.8-3.1h3.3c-.4,2.3-1.6,4.1-3.1,5.5ZM325.8,129.7c-.3-.6-.8-1.3-1.3-1.9-.5-.5-1.1-.9-1.8-1.3-.8-.3-1.5-.5-2.3-.5s-1.7,0-2.4.5c-.6.3-1.3.8-1.8,1.3s-.9,1.1-1.1,1.9c-.3.8-.5,1.5-.5,2.3h11.8c-.1-.9-.2-1.6-.6-2.3Z"/>
        <path class="cls-2" d="M344.4,131.5v3.2h-11.4v-3.2h11.4Z"/>
        <path class="cls-2" d="M352.4,123.6v2.8h.1c.5-1.1,1.5-2,2.7-2.5,1.3-.5,2.5-.8,3.9-.8s2.8.3,4.2.9c1.1.5,2.2,1.4,2.9,2.4.8,1,1.4,2.2,1.8,3.4.4,1.4.6,2.8.6,4.2s-.1,2.8-.6,4.2c-.4,1.3-.9,2.4-1.8,3.4-.8,1-1.8,1.8-2.9,2.3-1.3.6-2.7.9-4.1.9s-1.1,0-1.7-.1-1.3-.3-1.9-.5-1.1-.5-1.8-1c-.5-.4-1-.9-1.4-1.5h-.1v10.6h-3.3v-28.4h3.4v-.3ZM364.7,131c-.3-.9-.6-1.7-1.1-2.4s-1.1-1.3-2-1.7c-.9-.4-1.9-.6-2.8-.6-1.9,0-3.8.9-4.8,2.4-.5.8-.9,1.7-1.1,2.5-.5,1.9-.5,3.8,0,5.7.3.9.6,1.8,1.1,2.5.5.8,1.3,1.3,2,1.8.9.5,1.9.6,2.9.6s2-.3,2.9-.6c.8-.4,1.4-1,1.9-1.8s.9-1.7,1-2.5c.3-1,.4-1.9.4-2.9-.1-1.2-.2-2.1-.4-3h0Z"/>
        <path class="cls-2" d="M376,115.9v10.8h.1c.3-.6.6-1.1,1.1-1.7.5-.4,1-.8,1.7-1,.6-.3,1.3-.5,1.9-.6s1.3-.3,1.9-.3c1.1,0,2.3,0,3.4.5.9.4,1.7.9,2.2,1.5s1,1.5,1.1,2.4c.3,1,.4,2,.4,3.1v13.5h-3.4v-14c0-1.1-.4-2.2-1.1-3.1-.8-.8-1.9-1.1-3.1-1.1s-1.8,0-2.7.5c-.8.3-1.4.8-1.9,1.4s-.9,1.3-1.1,2c-.3.9-.4,1.7-.4,2.5v11.7h-3.4v-28.4h3.3v.3Z"/>
        <path class="cls-2" d="M409.4,143c-1.7,1.3-3.7,1.8-5.9,1.8s-2.9-.3-4.3-.8c-1.1-.5-2.2-1.3-3.1-2.3s-1.5-2.2-1.9-3.4c-.4-1.4-.6-2.9-.6-4.3s.3-2.9.8-4.3c.5-1.3,1.1-2.4,2-3.4.9-.9,1.9-1.7,3.1-2.3,1.3-.5,2.5-.8,3.9-.8s3.2.4,4.6,1.1c1.1.8,2.2,1.7,2.9,2.9.8,1.1,1.3,2.4,1.5,3.8.3,1.3.4,2.7.4,3.9h-15.4c0,.9.1,1.8.4,2.5.3.8.6,1.5,1.1,2.2.5.6,1.3,1.1,2,1.5.9.4,1.9.6,2.9.5,1.3,0,2.5-.3,3.6-1,1-.8,1.7-1.8,1.8-3.1h3.3c-.5,2.3-1.6,4.1-3.1,5.5ZM408.5,129.7c-.3-.6-.8-1.3-1.3-1.9-.5-.5-1.1-.9-1.8-1.3-.8-.3-1.5-.5-2.3-.5s-1.7,0-2.4.5c-.6.3-1.3.8-1.8,1.3s-.9,1.1-1.1,1.9c-.3.8-.5,1.5-.5,2.3h11.8c-.1-.9-.2-1.6-.6-2.3Z"/>
        <path class="cls-2" d="M419.3,123.6v3.3h.1c1.3-2.4,3.9-3.9,6.8-3.7,1.1,0,2.3,0,3.4.5.9.4,1.7.9,2.2,1.5s1,1.5,1.1,2.4c.3,1,.4,2,.4,3.1v13.5h-3.4v-14c0-1.1-.4-2.2-1.1-3.1-.8-.8-1.9-1.1-3.1-1.1s-1.8,0-2.7.5c-.8.3-1.4.8-1.9,1.4s-.9,1.3-1.1,2c-.3.9-.4,1.7-.4,2.5v11.6h-3.4v-20.6h3.2v.2h-.1Z"/>
        <path class="cls-2" d="M437.8,129.7c.4-1.3,1-2.4,1.9-3.4s1.9-1.8,3.2-2.3c2.8-1.1,5.9-1.1,8.7,0,1.1.5,2.3,1.3,3.2,2.3s1.5,2.2,1.9,3.4c.4,1.4.6,2.8.6,4.2s-.3,2.8-.6,4.2c-.4,1.3-1,2.4-1.9,3.4s-1.9,1.8-3.2,2.3c-2.8,1.1-5.9,1.1-8.7,0-1.1-.5-2.3-1.3-3.2-2.3s-1.5-2.2-1.9-3.4c-.4-1.4-.6-2.8-.6-4.2s.2-2.8.6-4.2ZM441.3,137.3c.3.9.8,1.8,1.4,2.4.5.6,1.3,1.1,2,1.5,1.5.6,3.4.6,5,0,.8-.4,1.5-.9,2-1.5.6-.8,1.1-1.5,1.4-2.4.6-2.2.6-4.5,0-6.6-.3-.9-.8-1.8-1.4-2.4-.5-.6-1.3-1.1-2-1.5-1.5-.6-3.4-.6-5,0-.8.4-1.5.9-2,1.5-.6.8-1,1.5-1.4,2.4-.7,2.1-.7,4.4,0,6.6Z"/>
        <path class="cls-2" d="M464.4,123.6v3.1h.1c2.3-3.3,6.5-4.5,10.1-2.7s1.9,1.5,2.2,2.7c.6-1.1,1.7-2,2.7-2.5,1.1-.6,2.4-.9,3.7-.9s1.9,0,2.8.4c.8.3,1.5.5,2.2,1,.6.5,1.1,1.1,1.4,1.9.4.9.5,1.8.5,2.7v15.2h-3.4v-13.5c0-.6,0-1.1-.1-1.8-.1-.5-.3-1-.6-1.4-.3-.4-.8-.8-1.3-1-.6-.3-1.3-.4-2-.4-1.4,0-2.9.4-3.9,1.4s-1.5,2.4-1.4,3.8v12.9h-3.4v-13.5c0-.6,0-1.3-.1-1.8s-.3-1-.6-1.4c-.3-.4-.8-.8-1.1-1-.6-.3-1.3-.4-1.9-.4-.9,0-1.8,0-2.5.6-1.3.6-2.2,1.8-2.7,3.2-.1.5-.3,1-.3,1.5v12.9h-3.8v-20.6h3.4v-.4Z"/>
        <path class="cls-2" d="M509.7,143c-1.7,1.3-3.7,1.8-5.9,1.8s-2.9-.3-4.3-.8c-1.1-.5-2.2-1.3-3.1-2.3s-1.5-2.2-1.9-3.4c-.4-1.4-.6-2.9-.6-4.3s.3-2.9.8-4.3c.5-1.3,1.1-2.4,2-3.4.9-.9,1.9-1.7,3.1-2.3,1.3-.5,2.5-.8,3.9-.8s3.2.4,4.6,1.1c1.1.8,2.2,1.7,2.9,2.9.8,1.1,1.3,2.4,1.5,3.8.3,1.3.4,2.7.4,3.9h-15.4c0,.9.1,1.8.4,2.5.3.8.6,1.5,1.1,2.2.5.6,1.3,1.1,2,1.5.9.4,1.9.6,2.9.5,1.3,0,2.5-.3,3.6-1,1-.8,1.7-1.8,1.8-3.1h3.3c-.4,2.3-1.4,4.1-3.1,5.5ZM509,129.7c-.3-.6-.8-1.3-1.3-1.9-.5-.5-1.1-.9-1.8-1.3-.8-.3-1.5-.5-2.3-.5s-1.7,0-2.4.5c-.6.3-1.3.8-1.8,1.3s-.9,1.1-1.1,1.9c-.3.8-.5,1.5-.5,2.3h11.8c-.1-.9-.4-1.6-.6-2.3Z"/>
        <path class="cls-2" d="M195.8,152l10.7,28.4h-6.5l-2.2-6.4h-10.7l-2.3,6.4h-6.2l10.7-28.4h6.5ZM196.2,169.5l-3.6-10.4h-.1l-3.7,10.4h7.4Z"/>
        <path class="cls-2" d="M211.8,159.8v4.3h.1c.6-1.5,1.7-2.8,3.1-3.7,1.4-.9,2.9-1.3,4.6-1.1v3.6c-1.1,0-2.3.1-3.4.5-.9.4-1.7.9-2.3,1.7s-1,1.7-1.3,2.5c-.3,1.1-.4,2.3-.4,3.6v9.2h-3.4v-20.5h3Z"/>
        <path class="cls-2" d="M233.6,163.4c-1-.8-2.2-1.1-3.4-1-1,0-2.2.3-3.1.6-.8.4-1.5,1-1.9,1.8-.5.8-.9,1.7-1,2.5-.3,1-.4,2-.4,3.1s.1,1.9.4,2.8c.3.9.5,1.7,1,2.4.5.8,1.1,1.3,1.9,1.7.9.4,1.8.6,2.8.6,1.4.1,2.8-.4,3.9-1.3,1-1,1.7-2.3,1.8-3.7h3.4c-.3,2.3-1.3,4.3-2.8,5.9-1.8,1.4-3.9,2.2-6.2,2-1.4,0-2.8-.3-4.2-.8-1.1-.5-2.2-1.1-3.1-2.2s-1.4-2.2-1.8-3.3c-.4-1.4-.6-2.8-.6-4.2s.1-2.9.6-4.3c.4-1.3,1-2.4,1.8-3.6.8-1,1.9-1.8,3.1-2.3,1.4-.6,2.8-.9,4.2-.9s2.2.1,3.3.4c1,.3,1.9.6,2.7,1.3.8.6,1.4,1.4,1.9,2.2.5,1,.9,2,1,3.2h-3.6c-.3-1-.8-2-1.7-2.9Z"/>
        <path class="cls-2" d="M246.1,152v10.8h.1c.3-.6.6-1.1,1.1-1.7.5-.4,1-.8,1.7-1,.6-.3,1.3-.5,1.9-.6s1.3-.3,1.9-.3c1.1,0,2.3.1,3.4.5.9.4,1.7.9,2.2,1.5s1,1.5,1.1,2.4c.3,1,.4,2,.4,3.1v13.5h-3.7v-14c0-1.1-.4-2.2-1.1-3.1-.8-.8-1.9-1.1-3.1-1.1s-1.8.1-2.7.5c-.8.3-1.4.8-1.9,1.4-.5.6-.9,1.3-1.1,2-.3.9-.4,1.7-.4,2.5v11.6h-3.4v-28.4h3.6v.4Z"/>
        <path class="cls-2" d="M265.1,156.1v-4.2h3.4v4.2h-3.4ZM268.4,159.8v20.6h-3.4v-20.6h3.4Z"/>
        <path class="cls-2" d="M279.3,180.4l-7.6-20.6h3.8l5.7,17.2h.1l5.6-17.2h3.6l-7.5,20.6h-3.7Z"/>
        <path class="cls-2" d="M308.1,179.2c-1.7,1.3-3.7,1.8-5.9,1.8s-2.9-.3-4.3-.8c-1.1-.5-2.2-1.3-3.1-2.3s-1.5-2.2-1.9-3.4c-.4-1.4-.6-2.9-.6-4.3s.3-2.9.8-4.3c.5-1.3,1.1-2.4,2-3.4.9-.9,1.9-1.7,3.1-2.3,1.3-.5,2.5-.8,3.9-.8s3.2.4,4.6,1.1c1.1.8,2.2,1.7,2.9,2.9.8,1.1,1.3,2.4,1.5,3.8.3,1.3.4,2.7.4,3.9h-15.4c0,.9.1,1.8.4,2.5.3.8.6,1.5,1.1,2.2.5.6,1.3,1.1,2,1.5.9.4,1.9.6,2.9.5,1.3,0,2.5-.3,3.6-1,1-.8,1.7-1.8,1.8-3.1h3.3c-.4,2.3-1.4,4.1-3.1,5.5ZM307.3,165.9c-.3-.6-.8-1.3-1.3-1.9-.5-.5-1.1-.9-1.8-1.3-.8-.3-1.5-.5-2.3-.5s-1.7.1-2.4.5c-.6.3-1.3.8-1.8,1.3s-.9,1.1-1.1,1.9c-.3.8-.5,1.5-.5,2.3h11.9c-.1-.8-.4-1.6-.7-2.3Z"/>
      </g>
    </g>
  </g>
</svg>